<svg width="32" height="32" viewBox="0 0 32 32" fill="none" xmlns="http://www.w3.org/2000/svg">
  <path d="M8 8C8 5.79086 9.79086 4 12 4H16C18.2091 4 20 5.79086 20 8V12C20 14.2091 18.2091 16 16 16H12C9.79086 16 8 14.2091 8 12V8Z" fill="currentColor"/>
  <path d="M12 20C12 17.7909 13.7909 16 16 16H20C22.2091 16 24 17.7909 24 20V24C24 26.2091 22.2091 28 20 28H16C13.7909 28 12 26.2091 12 24V20Z" fill="currentColor"/>
  <path d="M6 12C6 10.8954 6.89543 10 8 10C9.10457 10 10 10.8954 10 12C10 13.1046 9.10457 14 8 14C6.89543 14 6 13.1046 6 12Z" fill="currentColor"/>
  <path d="M22 20C22 18.8954 22.8954 18 24 18C25.1046 18 26 18.8954 26 20C26 21.1046 25.1046 22 24 22C22.8954 22 22 21.1046 22 20Z" fill="currentColor"/>
</svg> 